<?xml version="1.0" encoding="UTF-8" standalone="no"?>
<svg
   xmlns:dc="http://purl.org/dc/elements/1.1/"
   xmlns:cc="http://creativecommons.org/ns#"
   xmlns:rdf="http://www.w3.org/1999/02/22-rdf-syntax-ns#"
   xmlns:svg="http://www.w3.org/2000/svg"
   xmlns="http://www.w3.org/2000/svg"
   xmlns:sodipodi="http://sodipodi.sourceforge.net/DTD/sodipodi-0.dtd"
   xmlns:inkscape="http://www.inkscape.org/namespaces/inkscape"
   height="128px"
   viewBox="0 0 128 128"
   width="128px"
   version="1.1"
   id="svg35"
   sodipodi:docname="applications-accessories.svg"
   inkscape:version="1.0.1 (3bc2e813f5, 2020-09-07)">
  <metadata
     id="metadata41">
    <rdf:RDF>
      <cc:Work
         rdf:about="">
        <dc:format>image/svg+xml</dc:format>
        <dc:type
           rdf:resource="http://purl.org/dc/dcmitype/StillImage" />
        <dc:title></dc:title>
      </cc:Work>
    </rdf:RDF>
  </metadata>
  <defs
     id="defs39" />
  <sodipodi:namedview
     pagecolor="#ffffff"
     bordercolor="#666666"
     borderopacity="1"
     objecttolerance="10"
     gridtolerance="10"
     guidetolerance="10"
     inkscape:pageopacity="0"
     inkscape:pageshadow="2"
     inkscape:window-width="1920"
     inkscape:window-height="1023"
     id="namedview37"
     showgrid="true"
     inkscape:zoom="1.1946238"
     inkscape:cx="-149.77264"
     inkscape:cy="57.959371"
     inkscape:window-x="0"
     inkscape:window-y="0"
     inkscape:window-maximized="1"
     inkscape:current-layer="svg35">
    <inkscape:grid
       type="xygrid"
       id="grid868" />
  </sodipodi:namedview>
  <linearGradient
     id="a"
     gradientUnits="userSpaceOnUse"
     x1="36"
     x2="60"
     y1="68"
     y2="68">
    <stop
       offset="0"
       stop-color="#ed336c"
       id="stop2" />
    <stop
       offset="1"
       stop-color="#ffa348"
       id="stop4" />
  </linearGradient>
  <linearGradient
     id="b"
     gradientTransform="matrix(0 1 -1 0 144 -32)"
     gradientUnits="userSpaceOnUse"
     x1="72"
     x2="96"
     y1="68"
     y2="68">
    <stop
       offset="0"
       stop-color="#404ce6"
       id="stop7" />
    <stop
       offset="1"
       stop-color="#c061cb"
       id="stop9" />
  </linearGradient>
  <linearGradient
     id="c"
     gradientUnits="userSpaceOnUse"
     x1="68.84919"
     x2="95.257637"
     y1="84"
     y2="84">
    <stop
       offset="0"
       stop-color="#33d1c6"
       id="stop12" />
    <stop
       offset="1"
       stop-color="#1c25d8"
       id="stop14" />
  </linearGradient>
  <path
     d="m 52 8 l -8 8 v 16 h 8 z m 0 0"
     fill="#f6f5f4"
     id="path19"
     style="fill:#79503c" />
  <path
     d="m 76 8 l 8 8 v 16 h -8 z m 0 0"
     fill="#f6f5f4"
     id="path21"
     style="fill:#79503c" />
  <path
     d="m 44,16 c 0,-5 3,-8 8,-8 h 24 c 5,0 8,3 8,8 z"
     fill="#c0bfbc"
     id="path17"
     style="fill:#603f2f"
     sodipodi:nodetypes="ccccc" />
  <path
     d="m 16 72 h 96 c 4.417969 0 8 3.582031 8 8 v 28 c 0 4.417969 -3.582031 8 -8 8 h -96 c -4.417969 0 -8 -3.582031 -8 -8 v -28 c 0 -4.417969 3.582031 -8 8 -8 z m 0 0"
     fill="#deddda"
     id="path23"
     style="fill:#79503c" />
  <path
     d="m 16.000046,25 h 96.000004 c 4.41797,0 8,5.535866 8,12.363636 v 43.272728 c 0,6.827772 -3.58203,12.363636 -8,12.363636 H 16.000046 C 11.582077,93 8.0000465,87.464136 8.0000465,80.636364 V 37.363636 C 8.0000465,30.535866 11.582077,25 16.000046,25 Z m 0,0"
     fill="#deddda"
     id="path23-3"
     style="fill:#c6a798;stroke-width:1.24316" />
  <path
     d="m 8 68 h 112 v 40 h -112 z m 0 0"
     fill="#f6f5f4"
     id="path27"
     style="fill:#a17a69" />
</svg>
